<svg xmlns="http://www.w3.org/2000/svg" width="25" height="24" viewBox="0 0 25 24" fill="none">
  <mask id="mask0_2390_134" style="mask-type:alpha" maskUnits="userSpaceOnUse" x="0" y="0"
    width="25" height="24">
    <rect x="0.5" width="24" height="24" fill="#D9D9D9" />
  </mask>
  <g mask="url(#mask0_2390_134)">
    <path
      d="M17.9 11.9C18.2117 11.9 18.4729 11.7946 18.6838 11.5838C18.8946 11.3729 19 11.1117 19 10.8C19 10.4883 18.8946 10.2271 18.6838 10.0162C18.4729 9.80542 18.2117 9.7 17.9 9.7C17.5883 9.7 17.3271 9.80542 17.1163 10.0162C16.9054 10.2271 16.8 10.4883 16.8 10.8C16.8 11.1117 16.9054 11.3729 17.1163 11.5838C17.3271 11.7946 17.5883 11.9 17.9 11.9ZM9.1 9.7H14.6V7.5H9.1V9.7ZM5.25 22.9C4.62667 20.81 4.0125 18.7246 3.4075 16.6438C2.8025 14.5629 2.5 12.4317 2.5 10.25C2.5 8.56333 3.08667 7.13333 4.26 5.96C5.43333 4.78667 6.86333 4.2 8.55 4.2H14.05C14.5817 3.50333 15.2279 2.9625 15.9888 2.5775C16.7496 2.1925 17.57 2 18.45 2C18.9083 2 19.2979 2.16042 19.6187 2.48125C19.9396 2.80208 20.1 3.19167 20.1 3.65C20.1 3.76 20.0863 3.87 20.0588 3.98C20.0313 4.09 19.9992 4.19083 19.9625 4.2825C19.8892 4.48417 19.8204 4.69042 19.7563 4.90125C19.6921 5.11208 19.6417 5.3275 19.605 5.5475L22.1075 8.05H24.5V15.7225L21.3925 16.74L19.55 22.9H13.5V20.7H11.3V22.9H5.25ZM6.9 20.7H9.1V18.5H15.7V20.7H17.9L19.605 15.035L22.3 14.1275V10.25H21.2L17.35 6.4C17.35 6.03333 17.3729 5.68042 17.4188 5.34125C17.4646 5.00208 17.5333 4.65833 17.625 4.31C17.0933 4.45667 16.6258 4.70875 16.2225 5.06625C15.8192 5.42375 15.5258 5.86833 15.3425 6.4H8.55C7.48667 6.4 6.57917 6.77583 5.8275 7.5275C5.07583 8.27917 4.7 9.18667 4.7 10.25C4.7 12.0467 4.9475 13.8021 5.4425 15.5163C5.9375 17.2304 6.42333 18.9583 6.9 20.7Z"
      fill="#8E8E8E" />
  </g>
</svg>