<svg xmlns="http://www.w3.org/2000/svg" width="88" height="111" viewBox="0 0 88 111" fill="none">
  <path
    d="M44.0002 50.0416C50.0043 50.0416 55.1443 47.9038 59.4199 43.6281C63.6956 39.3524 65.8335 34.2125 65.8335 28.2083V11.8333H22.1668V28.2083C22.1668 34.2125 24.3047 39.3524 28.5804 43.6281C32.8561 47.9038 37.996 50.0416 44.0002 50.0416ZM0.333496 110.083V99.1666H11.2502V82.7916C11.2502 77.2423 12.5465 72.0342 15.1392 67.1671C17.7319 62.3001 21.3481 58.4111 25.9877 55.5C21.3481 52.5888 17.7319 48.6998 15.1392 43.8328C12.5465 38.9658 11.2502 33.7576 11.2502 28.2083V11.8333H0.333496V0.916626H87.6668V11.8333H76.7502V28.2083C76.7502 33.7576 75.4538 38.9658 72.8611 43.8328C70.2684 48.6998 66.6522 52.5888 62.0127 55.5C66.6522 58.4111 70.2684 62.3001 72.8611 67.1671C75.4538 72.0342 76.7502 77.2423 76.7502 82.7916V99.1666H87.6668V110.083H0.333496Z"
    fill="#B2B2B2" />
</svg>